<svg viewBox="0 0 27 27"
 xmlns="http://www.w3.org/2000/svg"
 xmlns:xlink="http://www.w3.org/1999/xlink"
>
<path fill-rule="evenodd"  opacity="0.702" fill="rgb(0, 0, 0)"
 d="M26.502,13.092 L25.410,13.127 L26.502,13.091 C26.393,9.575 24.890,6.417 22.545,4.151 C20.202,1.882 17.003,0.491 13.507,0.492 C13.368,0.492 13.230,0.494 13.092,0.499 L13.092,0.499 C9.574,0.608 6.417,2.110 4.151,4.455 C1.882,6.798 0.492,9.997 0.492,13.493 C0.492,13.632 0.493,13.770 0.498,13.908 C0.608,17.426 2.111,20.583 4.456,22.849 C6.799,25.117 9.998,26.509 13.493,26.509 C13.630,26.509 13.769,26.507 13.908,26.502 C17.426,26.392 20.583,24.890 22.849,22.544 C25.118,20.201 26.509,17.002 26.509,13.507 C26.509,13.369 26.507,13.231 26.502,13.092 ZM5.721,5.973 C6.718,4.943 7.921,4.111 9.262,3.540 C8.705,4.342 8.228,5.290 7.836,6.350 L5.374,6.350 C5.487,6.223 5.602,6.097 5.721,5.973 ZM4.337,7.741 L7.392,7.741 C6.971,9.276 6.715,10.988 6.662,12.806 L2.700,12.806 C2.817,10.955 3.400,9.228 4.337,7.741 ZM4.335,19.260 C3.402,17.780 2.820,16.056 2.702,14.195 L6.666,14.195 C6.719,16.011 6.969,17.725 7.390,19.260 L4.335,19.260 ZM5.974,21.280 C5.766,21.077 5.569,20.867 5.377,20.650 L7.839,20.650 C8.047,21.213 8.275,21.751 8.530,22.245 C8.753,22.678 8.994,23.084 9.254,23.457 C8.031,22.934 6.921,22.194 5.974,21.280 ZM12.805,24.299 C12.504,24.281 12.205,24.251 11.911,24.208 C11.789,24.128 11.667,24.041 11.545,23.942 C10.713,23.265 9.930,22.122 9.324,20.650 L12.805,20.650 L12.805,24.299 L12.805,24.299 ZM12.805,19.260 L8.834,19.260 C8.387,17.765 8.110,16.040 8.052,14.195 L12.805,14.195 L12.805,19.260 L12.805,19.260 ZM12.805,12.806 L8.057,12.806 C8.113,10.959 8.394,9.236 8.841,7.741 L12.805,7.741 L12.805,12.806 ZM12.805,6.350 L9.328,6.350 C9.466,6.016 9.609,5.692 9.764,5.393 C10.287,4.379 10.903,3.582 11.545,3.059 C11.664,2.961 11.785,2.875 11.905,2.796 C12.202,2.753 12.501,2.721 12.805,2.701 L12.805,6.350 ZM22.666,7.741 C23.598,9.220 24.180,10.944 24.299,12.806 L20.334,12.806 C20.281,10.989 20.032,9.275 19.611,7.741 L22.666,7.741 ZM21.026,5.721 C21.234,5.922 21.431,6.133 21.624,6.350 L19.162,6.350 C18.954,5.787 18.726,5.249 18.471,4.756 C18.247,4.321 18.005,3.917 17.747,3.543 C18.970,4.067 20.080,4.806 21.026,5.721 ZM14.195,2.700 C14.496,2.720 14.796,2.749 15.089,2.792 C15.211,2.873 15.334,2.958 15.456,3.059 C16.288,3.735 17.071,4.879 17.677,6.350 L14.195,6.350 L14.195,2.700 ZM14.195,7.741 L18.167,7.741 C18.614,9.235 18.891,10.960 18.948,12.806 L14.195,12.806 L14.195,7.741 ZM14.195,14.195 L18.944,14.195 C18.887,16.041 18.607,17.765 18.160,19.260 L14.195,19.260 L14.195,14.195 ZM17.236,21.606 C16.713,22.622 16.098,23.418 15.456,23.942 C15.336,24.040 15.217,24.124 15.096,24.203 C14.800,24.248 14.499,24.279 14.195,24.298 L14.195,20.650 L17.673,20.650 C17.534,20.985 17.391,21.308 17.236,21.606 ZM21.279,21.026 C20.281,22.058 19.081,22.888 17.740,23.459 C18.297,22.657 18.772,21.710 19.165,20.650 L21.626,20.650 C21.513,20.778 21.398,20.904 21.279,21.026 ZM22.662,19.260 L19.608,19.260 C20.029,17.725 20.285,16.013 20.338,14.195 L24.300,14.195 C24.182,16.046 23.601,17.772 22.662,19.260 Z"/>
</svg>