<svg viewBox="0 0 433 55"
 xmlns="http://www.w3.org/2000/svg"
 xmlns:xlink="http://www.w3.org/1999/xlink"
>
<path fill-rule="evenodd"  fill="rgb(0, 0, 0)"
 d="M432.803,14.676 L426.668,14.676 C426.717,14.380 426.742,13.986 426.742,13.493 C426.742,11.867 426.126,10.364 424.894,8.984 C423.662,7.604 421.986,6.914 419.867,6.914 C417.502,6.914 415.444,7.715 413.695,9.317 C411.946,10.918 411.071,12.852 411.071,15.119 C411.071,16.795 411.724,18.285 413.030,19.591 C414.336,20.897 415.913,22.068 417.761,23.103 C419.609,24.137 421.457,25.259 423.305,26.466 C425.153,27.673 426.730,29.324 428.035,31.419 C429.341,33.513 429.994,35.940 429.994,38.700 C429.994,41.065 429.452,43.381 428.368,45.648 C427.284,47.915 425.448,49.898 422.861,51.599 C420.274,53.299 417.206,54.149 413.658,54.149 C409.469,54.149 406.192,53.028 403.827,50.785 C401.461,48.543 400.279,45.697 400.279,42.248 L400.648,38.552 L406.931,38.552 C406.685,40.079 406.562,41.016 406.562,41.361 C406.562,43.381 407.215,45.044 408.521,46.350 C409.827,47.656 411.662,48.309 414.028,48.309 C416.837,48.309 419.091,47.447 420.791,45.722 C422.491,43.997 423.342,41.952 423.342,39.587 C423.342,37.813 422.886,36.236 421.974,34.856 C421.062,33.476 419.904,32.355 418.500,31.492 C417.095,30.630 415.592,29.694 413.991,28.683 C412.389,27.673 410.886,26.675 409.482,25.690 C408.077,24.704 406.919,23.361 406.007,21.661 C405.096,19.961 404.640,18.027 404.640,15.858 C404.640,11.670 406.155,8.134 409.186,5.251 C412.217,2.368 415.925,0.927 420.311,0.927 C424.401,0.927 427.530,2.122 429.699,4.512 C431.867,6.902 432.951,9.649 432.951,12.754 L432.803,14.676 ZM377.349,53.410 L365.891,13.789 C365.448,18.569 364.979,22.758 364.487,26.355 L360.643,53.410 L354.877,53.410 L362.195,1.666 L368.183,1.666 L379.640,41.361 C379.936,37.566 380.404,33.451 381.045,29.016 L384.888,1.666 L390.654,1.666 L383.336,53.410 L377.349,53.410 ZM338.201,14.676 C338.251,14.380 338.275,13.986 338.275,13.493 C338.275,11.867 337.659,10.364 336.427,8.984 C335.195,7.604 333.520,6.914 331.401,6.914 C329.035,6.914 326.978,7.715 325.229,9.317 C323.479,10.918 322.604,12.852 322.604,15.119 C322.604,16.795 323.257,18.285 324.563,19.591 C325.869,20.897 327.446,22.068 329.294,23.103 C331.142,24.137 332.990,25.259 334.838,26.466 C336.686,27.673 338.263,29.324 339.569,31.419 C340.875,33.513 341.528,35.940 341.528,38.700 C341.528,41.065 340.986,43.381 339.902,45.648 C338.817,47.915 336.982,49.898 334.395,51.599 C331.807,53.299 328.740,54.149 325.192,54.149 C321.003,54.149 317.726,53.028 315.360,50.785 C312.995,48.543 311.812,45.697 311.812,42.248 L312.182,38.552 L318.465,38.552 C318.218,40.079 318.095,41.016 318.095,41.361 C318.095,43.381 318.748,45.044 320.054,46.350 C321.360,47.656 323.196,48.309 325.561,48.309 C328.370,48.309 330.625,47.447 332.325,45.722 C334.025,43.997 334.875,41.952 334.875,39.587 C334.875,37.813 334.419,36.236 333.508,34.856 C332.596,33.476 331.438,32.355 330.033,31.492 C328.629,30.630 327.126,29.694 325.524,28.683 C323.923,27.673 322.420,26.675 321.015,25.690 C319.611,24.704 318.453,23.361 317.541,21.661 C316.629,19.961 316.173,18.027 316.173,15.858 C316.173,11.670 317.689,8.134 320.719,5.251 C323.750,2.368 327.458,0.927 331.844,0.927 C335.935,0.927 339.064,2.122 341.232,4.512 C343.401,6.902 344.485,9.649 344.485,12.754 L344.337,14.676 L338.201,14.676 ZM276.110,53.410 L253.047,53.410 L260.291,1.666 L266.575,1.666 L260.144,47.570 L276.923,47.570 L276.110,53.410 ZM231.175,53.410 L233.467,36.926 L217.352,36.926 L215.061,53.410 L208.925,53.410 L212.030,31.308 L225.557,1.666 L235.241,1.666 L240.415,31.455 L237.384,53.410 L231.175,53.410 ZM230.288,7.284 L228.884,7.284 L218.461,31.160 L234.132,31.160 L230.288,7.284 ZM187.053,53.410 L194.297,1.666 L200.507,1.666 L193.262,53.410 L187.053,53.410 ZM171.508,14.602 C171.557,14.010 171.582,13.616 171.582,13.419 C171.582,11.596 170.929,10.031 169.623,8.725 C168.317,7.419 166.654,6.766 164.633,6.766 C162.367,6.766 160.358,7.506 158.609,8.984 C156.860,10.462 155.837,12.286 155.541,14.454 L151.993,39.439 C151.895,40.129 151.845,40.893 151.845,41.730 C151.845,43.652 152.498,45.229 153.804,46.461 C155.110,47.693 156.798,48.309 158.868,48.309 C161.529,48.309 163.685,47.422 165.336,45.648 C166.987,43.874 167.837,41.681 167.886,39.069 L174.021,39.069 C174.021,43.110 172.555,46.634 169.623,49.640 C166.691,52.646 163.007,54.149 158.572,54.149 C154.728,54.149 151.587,53.028 149.147,50.785 C146.708,48.543 145.488,45.747 145.488,42.396 C145.488,41.755 145.538,40.991 145.636,40.104 L149.184,14.528 C149.726,10.635 151.463,7.395 154.396,4.807 C157.328,2.220 160.913,0.927 165.151,0.927 C169.192,0.927 172.309,2.134 174.502,4.549 C176.695,6.963 177.791,9.625 177.791,12.532 L177.643,14.602 L171.508,14.602 ZM120.970,53.410 L128.214,1.666 L134.423,1.666 L127.179,53.410 L120.970,53.410 ZM95.386,7.506 L93.169,23.250 L110.466,23.250 L109.653,29.016 L92.356,29.016 L88.955,53.410 L82.746,53.410 L89.990,1.666 L115.271,1.666 L114.458,7.506 L95.386,7.506 ZM57.163,7.506 L54.945,23.250 L72.242,23.250 L71.429,29.016 L54.132,29.016 L50.732,53.410 L44.522,53.410 L51.767,1.666 L77.047,1.666 L76.234,7.506 L57.163,7.506 ZM29.614,40.548 C29.071,44.244 27.371,47.434 24.513,50.120 C21.655,52.806 17.934,54.149 13.351,54.149 C9.261,54.149 6.046,53.003 3.705,50.712 C1.364,48.420 0.194,45.648 0.194,42.396 C0.194,41.558 0.267,40.769 0.415,40.030 L3.963,14.528 C4.506,10.832 6.218,7.641 9.101,4.955 C11.984,2.270 15.741,0.927 20.374,0.927 C24.415,0.927 27.593,2.072 29.909,4.364 C32.225,6.655 33.383,9.427 33.383,12.680 C33.383,13.173 33.334,13.813 33.236,14.602 L29.614,40.548 ZM25.178,8.651 C23.897,7.395 22.098,6.766 19.782,6.766 C17.121,6.766 14.941,7.530 13.240,9.058 C11.540,10.585 10.542,12.384 10.247,14.454 L6.551,40.548 L6.477,40.991 L6.477,41.878 C6.477,43.652 7.130,45.168 8.436,46.424 C9.742,47.681 11.577,48.309 13.943,48.309 C16.505,48.309 18.637,47.545 20.337,46.018 C22.037,44.490 23.035,42.691 23.330,40.622 L27.026,14.454 C27.026,14.405 27.039,14.232 27.063,13.937 C27.088,13.641 27.100,13.419 27.100,13.271 C27.100,11.448 26.460,9.908 25.178,8.651 Z"/>
</svg>
