<svg viewBox="0 0 280 44"
 xmlns="http://www.w3.org/2000/svg"
 xmlns:xlink="http://www.w3.org/1999/xlink"
 width="280px" height="44px">
<path fill-rule="evenodd"  fill="rgb(255, 255, 255)"
 d="M265.634,23.310 L262.875,43.169 L257.835,43.169 L260.594,23.310 L252.674,1.170 L258.254,1.170 L263.894,17.670 L274.154,1.170 L279.794,1.170 L265.634,23.310 ZM242.636,18.510 C242.356,20.509 241.636,22.279 240.476,23.819 C239.316,25.359 237.816,26.430 235.976,27.029 L240.596,43.169 L235.136,43.169 L230.876,27.869 L225.297,27.869 L223.137,43.169 L218.097,43.169 L223.976,1.170 L235.436,1.170 C237.836,1.170 239.837,1.930 241.436,3.450 C243.036,4.970 243.836,6.850 243.836,9.090 C243.836,9.490 243.796,9.969 243.716,10.529 L242.636,18.510 ZM237.566,6.960 C236.786,6.260 235.797,5.910 234.597,5.910 L228.357,5.910 L225.956,23.189 L232.197,23.189 C233.476,23.189 234.627,22.750 235.646,21.869 C236.666,20.989 237.276,19.929 237.477,18.689 L238.616,10.830 C238.616,10.789 238.636,10.600 238.677,10.259 C238.716,9.919 238.736,9.710 238.736,9.630 C238.736,8.550 238.346,7.660 237.566,6.960 ZM206.691,32.729 C206.251,35.729 204.871,38.319 202.551,40.499 C200.231,42.679 197.211,43.769 193.491,43.769 C190.171,43.769 187.562,42.839 185.662,40.979 C183.762,39.119 182.812,36.869 182.812,34.229 C182.812,33.549 182.871,32.909 182.991,32.309 L185.871,11.609 C186.311,8.610 187.701,6.020 190.041,3.840 C192.381,1.660 195.431,0.570 199.191,0.570 C202.471,0.570 205.051,1.500 206.931,3.360 C208.811,5.220 209.751,7.470 209.751,10.110 C209.751,10.510 209.711,11.029 209.631,11.670 L206.691,32.729 ZM203.091,6.840 C202.051,5.820 200.591,5.310 198.711,5.310 C196.551,5.310 194.781,5.930 193.401,7.170 C192.021,8.410 191.211,9.870 190.971,11.550 L187.971,32.729 L187.911,33.089 L187.911,33.809 C187.911,35.249 188.441,36.479 189.502,37.499 C190.561,38.519 192.051,39.029 193.971,39.029 C196.051,39.029 197.781,38.409 199.161,37.169 C200.541,35.929 201.351,34.469 201.591,32.789 L204.591,11.550 C204.591,11.509 204.601,11.370 204.621,11.130 C204.641,10.890 204.651,10.709 204.651,10.590 C204.651,9.110 204.131,7.860 203.091,6.840 ZM169.227,5.910 L164.007,43.169 L158.967,43.169 L164.187,5.910 L155.188,5.910 L155.847,1.170 L178.947,1.170 L178.287,5.910 L169.227,5.910 ZM141.418,11.730 C141.457,11.490 141.478,11.170 141.478,10.770 C141.478,9.450 140.977,8.230 139.978,7.109 C138.978,5.990 137.618,5.430 135.898,5.430 C133.978,5.430 132.308,6.080 130.888,7.380 C129.468,8.680 128.758,10.250 128.758,12.089 C128.758,13.450 129.288,14.659 130.348,15.719 C131.408,16.779 132.688,17.729 134.188,18.570 C135.688,19.410 137.188,20.319 138.688,21.299 C140.188,22.279 141.467,23.619 142.528,25.320 C143.588,27.019 144.118,28.989 144.118,31.229 C144.118,33.149 143.678,35.029 142.798,36.869 C141.918,38.709 140.428,40.319 138.328,41.699 C136.228,43.079 133.738,43.769 130.858,43.769 C127.458,43.769 124.798,42.859 122.878,41.039 C120.958,39.219 119.998,36.909 119.998,34.109 L120.298,31.109 L125.398,31.109 C125.198,32.349 125.098,33.109 125.098,33.389 C125.098,35.029 125.628,36.379 126.688,37.439 C127.748,38.499 129.238,39.029 131.158,39.029 C133.438,39.029 135.268,38.329 136.648,36.929 C138.028,35.529 138.718,33.869 138.718,31.949 C138.718,30.509 138.348,29.229 137.608,28.109 C136.868,26.990 135.928,26.079 134.788,25.379 C133.648,24.679 132.428,23.920 131.128,23.099 C129.828,22.279 128.608,21.469 127.468,20.669 C126.328,19.869 125.388,18.780 124.648,17.400 C123.908,16.020 123.538,14.449 123.538,12.690 C123.538,9.290 124.768,6.419 127.228,4.080 C129.688,1.740 132.698,0.570 136.258,0.570 C139.578,0.570 142.118,1.540 143.878,3.480 C145.638,5.420 146.518,7.650 146.518,10.170 L146.398,11.730 L141.418,11.730 ZM96.419,18.510 C96.138,20.509 95.418,22.279 94.258,23.819 C93.099,25.359 91.599,26.430 89.759,27.029 L94.379,43.169 L88.919,43.169 L84.659,27.869 L79.079,27.869 L76.919,43.169 L71.879,43.169 L77.759,1.170 L89.219,1.170 C91.618,1.170 93.619,1.930 95.219,3.450 C96.819,4.970 97.619,6.850 97.619,9.090 C97.619,9.490 97.578,9.969 97.499,10.529 L96.419,18.510 ZM91.349,6.960 C90.569,6.260 89.579,5.910 88.379,5.910 L82.139,5.910 L79.739,23.189 L85.979,23.189 C87.259,23.189 88.409,22.750 89.429,21.869 C90.449,20.989 91.059,19.929 91.259,18.689 L92.399,10.830 C92.399,10.789 92.419,10.600 92.459,10.259 C92.499,9.919 92.519,9.710 92.519,9.630 C92.519,8.550 92.129,7.660 91.349,6.960 ZM56.159,40.649 C53.939,42.729 50.949,43.769 47.190,43.769 C43.909,43.769 41.289,42.869 39.330,41.069 C37.370,39.269 36.390,37.069 36.390,34.469 C36.390,33.989 36.430,33.389 36.510,32.669 L40.950,1.170 L45.990,1.170 L41.549,32.729 L41.490,33.209 L41.490,34.169 C41.490,35.449 42.009,36.579 43.049,37.559 C44.090,38.539 45.570,39.029 47.489,39.029 C49.810,39.029 51.609,38.429 52.890,37.229 C54.169,36.029 54.949,34.429 55.229,32.429 L59.549,1.170 L64.589,1.170 L60.149,32.729 C59.709,35.929 58.380,38.569 56.159,40.649 ZM23.976,32.729 C23.536,35.729 22.156,38.319 19.836,40.499 C17.516,42.679 14.496,43.769 10.777,43.769 C7.456,43.769 4.846,42.839 2.946,40.979 C1.046,39.119 0.096,36.869 0.096,34.229 C0.096,33.549 0.156,32.909 0.277,32.309 L3.156,11.609 C3.597,8.610 4.986,6.020 7.326,3.840 C9.666,1.660 12.716,0.570 16.476,0.570 C19.756,0.570 22.336,1.500 24.216,3.360 C26.096,5.220 27.036,7.470 27.036,10.110 C27.036,10.510 26.996,11.029 26.916,11.670 L23.976,32.729 ZM20.376,6.840 C19.336,5.820 17.876,5.310 15.996,5.310 C13.836,5.310 12.066,5.930 10.686,7.170 C9.307,8.410 8.496,9.870 8.256,11.550 L5.257,32.729 L5.196,33.089 L5.196,33.809 C5.196,35.249 5.727,36.479 6.786,37.499 C7.846,38.519 9.337,39.029 11.256,39.029 C13.336,39.029 15.066,38.409 16.446,37.169 C17.826,35.929 18.636,34.469 18.876,32.789 L21.876,11.550 C21.876,11.509 21.886,11.370 21.906,11.130 C21.926,10.890 21.936,10.709 21.936,10.590 C21.936,9.110 21.416,7.860 20.376,6.840 Z"/>
</svg>