<svg viewBox="0 0 113 36"
 xmlns="http://www.w3.org/2000/svg"
 xmlns:xlink="http://www.w3.org/1999/xlink"
>
<path fill-rule="evenodd"  fill="rgb(0, 0, 0)"
 d="M111.999,9.607 L108.015,9.607 C108.047,9.414 108.063,9.159 108.063,8.839 C108.063,7.783 107.663,6.807 106.863,5.911 C106.063,5.015 104.975,4.567 103.600,4.567 C102.064,4.567 100.727,5.087 99.592,6.127 C98.456,7.167 97.888,8.423 97.888,9.894 C97.888,10.982 98.312,11.950 99.160,12.798 C100.007,13.646 101.032,14.406 102.232,15.078 C103.432,15.750 104.632,16.478 105.832,17.262 C107.032,18.046 108.055,19.118 108.903,20.478 C109.751,21.838 110.175,23.414 110.175,25.205 C110.175,26.741 109.823,28.245 109.119,29.717 C108.415,31.189 107.223,32.477 105.543,33.581 C103.863,34.685 101.871,35.237 99.568,35.237 C96.848,35.237 94.720,34.509 93.184,33.053 C91.648,31.597 90.881,29.749 90.881,27.509 L91.121,25.109 L95.200,25.109 C95.040,26.101 94.960,26.709 94.960,26.933 C94.960,28.245 95.384,29.325 96.232,30.173 C97.080,31.021 98.272,31.445 99.808,31.445 C101.631,31.445 103.096,30.885 104.199,29.765 C105.303,28.645 105.855,27.317 105.855,25.781 C105.855,24.629 105.559,23.605 104.968,22.710 C104.376,21.814 103.623,21.085 102.712,20.526 C101.799,19.966 100.824,19.358 99.784,18.702 C98.744,18.046 97.768,17.398 96.856,16.758 C95.944,16.118 95.192,15.246 94.600,14.142 C94.008,13.038 93.712,11.782 93.712,10.374 C93.712,7.655 94.696,5.359 96.664,3.487 C98.632,1.615 101.039,0.679 103.887,0.679 C106.543,0.679 108.575,1.455 109.983,3.007 C111.391,4.559 112.095,6.343 112.095,8.359 L111.999,9.607 ZM78.250,34.757 L71.723,34.757 L70.091,20.598 L69.803,20.598 L64.284,34.757 L57.708,34.757 L57.660,15.462 L59.675,1.159 L63.755,1.159 L61.788,15.126 L61.548,30.869 L61.979,30.869 L68.267,15.558 L73.067,15.558 L74.987,30.869 L75.418,30.869 L79.642,15.126 L81.610,1.159 L85.738,1.159 L83.722,15.462 L78.250,34.757 ZM38.407,4.951 L36.967,15.174 L48.198,15.174 L47.670,18.918 L36.439,18.918 L34.759,30.965 L47.526,30.965 L46.998,34.757 L30.199,34.757 L34.903,1.159 L51.318,1.159 L50.790,4.951 L38.407,4.951 ZM15.467,34.757 L8.028,9.030 C7.740,12.134 7.436,14.854 7.116,17.190 L4.620,34.757 L0.876,34.757 L5.628,1.159 L9.516,1.159 L16.955,26.933 C17.147,24.469 17.451,21.797 17.867,18.918 L20.363,1.159 L24.106,1.159 L19.355,34.757 L15.467,34.757 Z"/>
</svg>