<svg viewBox="0 0 367 44"
 xmlns="http://www.w3.org/2000/svg"
 xmlns:xlink="http://www.w3.org/1999/xlink"
>
<path fill-rule="evenodd"  fill="rgb(255, 255, 255)"
 d="M366.165,11.729 L361.185,11.729 C361.225,11.490 361.245,11.170 361.245,10.770 C361.245,9.450 360.745,8.230 359.745,7.110 C358.745,5.990 357.385,5.430 355.665,5.430 C353.745,5.430 352.075,6.080 350.655,7.380 C349.235,8.680 348.525,10.249 348.525,12.090 C348.525,13.449 349.056,14.660 350.116,15.720 C351.175,16.780 352.456,17.730 353.955,18.569 C355.455,19.409 356.956,20.319 358.455,21.299 C359.955,22.279 361.235,23.619 362.295,25.319 C363.355,27.019 363.885,28.990 363.885,31.229 C363.885,33.149 363.446,35.029 362.565,36.869 C361.685,38.709 360.195,40.319 358.095,41.699 C355.996,43.079 353.505,43.769 350.625,43.769 C347.226,43.769 344.566,42.859 342.646,41.039 C340.726,39.219 339.766,36.909 339.766,34.109 L340.066,31.109 L345.165,31.109 C344.965,32.349 344.866,33.109 344.866,33.389 C344.866,35.029 345.395,36.379 346.456,37.439 C347.515,38.499 349.005,39.029 350.925,39.029 C353.206,39.029 355.036,38.329 356.415,36.929 C357.795,35.529 358.485,33.869 358.485,31.949 C358.485,30.509 358.115,29.229 357.375,28.109 C356.635,26.989 355.695,26.079 354.556,25.379 C353.416,24.679 352.196,23.919 350.895,23.099 C349.596,22.279 348.376,21.470 347.236,20.670 C346.095,19.869 345.155,18.779 344.415,17.399 C343.676,16.019 343.305,14.450 343.305,12.689 C343.305,9.290 344.536,6.420 346.996,4.080 C349.455,1.740 352.466,0.570 356.026,0.570 C359.346,0.570 361.885,1.540 363.645,3.480 C365.405,5.420 366.286,7.650 366.286,10.169 L366.165,11.729 ZM326.757,5.910 L321.538,43.169 L316.498,43.169 L321.717,5.910 L312.718,5.910 L313.378,1.170 L336.477,1.170 L335.817,5.910 L326.757,5.910 ZM302.499,18.509 C302.219,20.510 301.499,22.279 300.339,23.819 C299.179,25.360 297.679,26.429 295.839,27.030 L300.460,43.169 L295.000,43.169 L290.740,27.869 L285.160,27.869 L283.000,43.169 L277.960,43.169 L283.840,1.170 L295.299,1.170 C297.699,1.170 299.699,1.930 301.299,3.450 C302.900,4.970 303.699,6.850 303.699,9.090 C303.699,9.490 303.659,9.970 303.580,10.530 L302.499,18.509 ZM297.430,6.960 C296.650,6.260 295.660,5.910 294.460,5.910 L288.220,5.910 L285.820,23.190 L292.060,23.190 C293.340,23.190 294.490,22.749 295.510,21.869 C296.529,20.990 297.140,19.930 297.340,18.690 L298.479,10.829 C298.479,10.790 298.499,10.600 298.540,10.260 C298.580,9.920 298.600,9.710 298.600,9.630 C298.600,8.550 298.209,7.660 297.430,6.960 ZM266.554,32.729 C266.115,35.729 264.734,38.319 262.414,40.499 C260.094,42.679 257.074,43.769 253.354,43.769 C250.034,43.769 247.425,42.839 245.525,40.979 C243.625,39.119 242.675,36.869 242.675,34.229 C242.675,33.549 242.735,32.909 242.854,32.309 L245.734,11.610 C246.174,8.610 247.564,6.020 249.905,3.840 C252.245,1.660 255.294,0.570 259.054,0.570 C262.334,0.570 264.915,1.500 266.794,3.360 C268.674,5.220 269.614,7.470 269.614,10.110 C269.614,10.510 269.574,11.030 269.494,11.670 L266.554,32.729 ZM262.954,6.840 C261.914,5.820 260.454,5.310 258.574,5.310 C256.414,5.310 254.645,5.930 253.264,7.170 C251.884,8.410 251.075,9.870 250.835,11.549 L247.834,32.729 L247.775,33.089 L247.775,33.809 C247.775,35.249 248.304,36.479 249.365,37.499 C250.424,38.519 251.914,39.029 253.834,39.029 C255.914,39.029 257.644,38.409 259.024,37.169 C260.405,35.929 261.214,34.469 261.454,32.789 L264.455,11.549 C264.455,11.510 264.464,11.370 264.484,11.130 C264.504,10.890 264.514,10.710 264.514,10.589 C264.514,9.109 263.994,7.860 262.954,6.840 ZM235.541,10.530 L234.341,19.169 C233.981,21.849 232.811,24.090 230.831,25.890 C228.851,27.690 226.441,28.590 223.601,28.590 L217.002,28.590 L214.961,43.169 L209.921,43.169 L215.802,1.170 L227.261,1.170 C229.701,1.170 231.701,1.920 233.261,3.420 C234.821,4.920 235.601,6.830 235.601,9.150 L235.601,9.780 C235.601,10.000 235.591,10.169 235.571,10.290 C235.551,10.409 235.541,10.489 235.541,10.530 ZM229.331,6.960 C228.551,6.260 227.561,5.910 226.361,5.910 L220.181,5.910 L217.661,23.850 L223.841,23.850 C225.281,23.850 226.491,23.419 227.471,22.559 C228.451,21.699 229.041,20.629 229.241,19.350 L230.441,10.829 L230.441,10.650 C230.441,10.530 230.451,10.379 230.471,10.200 C230.491,10.020 230.501,9.849 230.501,9.689 C230.501,8.570 230.111,7.660 229.331,6.960 ZM197.087,11.729 C197.128,11.490 197.148,11.170 197.148,10.770 C197.148,9.450 196.648,8.230 195.648,7.110 C194.648,5.990 193.287,5.430 191.568,5.430 C189.648,5.430 187.978,6.080 186.558,7.380 C185.138,8.680 184.428,10.249 184.428,12.090 C184.428,13.449 184.958,14.660 186.018,15.720 C187.078,16.780 188.358,17.730 189.858,18.569 C191.358,19.409 192.858,20.319 194.358,21.299 C195.858,22.279 197.138,23.619 198.198,25.319 C199.257,27.019 199.788,28.990 199.788,31.229 C199.788,33.149 199.348,35.029 198.468,36.869 C197.587,38.709 196.098,40.319 193.997,41.699 C191.898,43.079 189.408,43.769 186.528,43.769 C183.128,43.769 180.468,42.859 178.548,41.039 C176.628,39.219 175.668,36.909 175.668,34.109 L175.968,31.109 L181.068,31.109 C180.868,32.349 180.768,33.109 180.768,33.389 C180.768,35.029 181.298,36.379 182.358,37.439 C183.418,38.499 184.908,39.029 186.828,39.029 C189.108,39.029 190.938,38.329 192.318,36.929 C193.698,35.529 194.388,33.869 194.388,31.949 C194.388,30.509 194.018,29.229 193.277,28.109 C192.538,26.989 191.598,26.079 190.458,25.379 C189.318,24.679 188.098,23.919 186.798,23.099 C185.498,22.279 184.278,21.470 183.138,20.670 C181.998,19.869 181.058,18.779 180.318,17.399 C179.578,16.019 179.208,14.450 179.208,12.689 C179.208,9.290 180.438,6.420 182.898,4.080 C185.358,1.740 188.368,0.570 191.928,0.570 C195.248,0.570 197.788,1.540 199.548,3.480 C201.308,5.420 202.188,7.650 202.188,10.169 L202.068,11.729 L197.087,11.729 ZM166.985,18.509 C166.706,20.510 165.986,22.279 164.826,23.819 C163.666,25.360 162.166,26.429 160.326,27.030 L164.946,43.169 L159.486,43.169 L155.226,27.869 L149.646,27.869 L147.486,43.169 L142.446,43.169 L148.326,1.170 L159.786,1.170 C162.186,1.170 164.186,1.930 165.786,3.450 C167.386,4.970 168.185,6.850 168.185,9.090 C168.185,9.490 168.146,9.970 168.066,10.530 L166.985,18.509 ZM161.916,6.960 C161.136,6.260 160.146,5.910 158.946,5.910 L152.706,5.910 L150.306,23.190 L156.546,23.190 C157.826,23.190 158.976,22.749 159.996,21.869 C161.016,20.990 161.626,19.930 161.826,18.690 L162.966,10.829 C162.966,10.790 162.986,10.600 163.026,10.260 C163.066,9.920 163.086,9.710 163.086,9.630 C163.086,8.550 162.696,7.660 161.916,6.960 ZM131.041,32.729 C130.601,35.729 129.221,38.319 126.900,40.499 C124.581,42.679 121.561,43.769 117.841,43.769 C114.521,43.769 111.911,42.839 110.011,40.979 C108.111,39.119 107.161,36.869 107.161,34.229 C107.161,33.549 107.221,32.909 107.341,32.309 L110.221,11.610 C110.661,8.610 112.051,6.020 114.391,3.840 C116.731,1.660 119.781,0.570 123.540,0.570 C126.821,0.570 129.401,1.500 131.281,3.360 C133.161,5.220 134.100,7.470 134.100,10.110 C134.100,10.510 134.060,11.030 133.981,11.670 L131.041,32.729 ZM127.441,6.840 C126.400,5.820 124.941,5.310 123.060,5.310 C120.900,5.310 119.131,5.930 117.751,7.170 C116.371,8.410 115.561,9.870 115.321,11.549 L112.321,32.729 L112.261,33.089 L112.261,33.809 C112.261,35.249 112.791,36.479 113.851,37.499 C114.911,38.519 116.401,39.029 118.321,39.029 C120.401,39.029 122.130,38.409 123.511,37.169 C124.891,35.929 125.700,34.469 125.940,32.789 L128.941,11.549 C128.941,11.510 128.951,11.370 128.971,11.130 C128.991,10.890 129.000,10.710 129.000,10.589 C129.000,9.109 128.481,7.860 127.441,6.840 ZM93.576,5.910 L88.357,43.169 L83.317,43.169 L88.537,5.910 L79.537,5.910 L80.197,1.170 L103.297,1.170 L102.636,5.910 L93.576,5.910 ZM67.591,32.729 C67.152,35.729 65.772,38.319 63.451,40.499 C61.131,42.679 58.112,43.769 54.391,43.769 C51.071,43.769 48.461,42.839 46.562,40.979 C44.662,39.119 43.712,36.869 43.712,34.229 C43.712,33.549 43.772,32.909 43.892,32.309 L46.771,11.610 C47.212,8.610 48.602,6.020 50.942,3.840 C53.282,1.660 56.331,0.570 60.092,0.570 C63.372,0.570 65.952,1.500 67.831,3.360 C69.711,5.220 70.651,7.470 70.651,10.110 C70.651,10.510 70.611,11.030 70.532,11.670 L67.591,32.729 ZM63.991,6.840 C62.952,5.820 61.492,5.310 59.612,5.310 C57.452,5.310 55.682,5.930 54.302,7.170 C52.922,8.410 52.112,9.870 51.872,11.549 L48.872,32.729 L48.812,33.089 L48.812,33.809 C48.812,35.249 49.342,36.479 50.402,37.499 C51.462,38.519 52.952,39.029 54.871,39.029 C56.952,39.029 58.681,38.409 60.062,37.169 C61.442,35.929 62.251,34.469 62.491,32.789 L65.492,11.549 C65.492,11.510 65.502,11.370 65.522,11.130 C65.542,10.890 65.552,10.710 65.552,10.589 C65.552,9.109 65.032,7.860 63.991,6.840 ZM24.476,43.169 L27.416,22.230 L29.456,9.269 L19.796,25.169 L15.356,25.169 L10.256,9.330 C9.696,14.290 9.156,18.569 8.636,22.169 L5.636,43.169 L0.716,43.169 L6.656,1.170 L11.936,1.170 L18.356,20.250 L30.055,1.170 L35.336,1.170 L29.396,43.169 L24.476,43.169 Z"/>
</svg>